<?xml version="1.0" encoding="utf-8"?>
<!-- Generator: Adobe Adobe Illustrator 24.2.0, SVG Export Plug-In . SVG Version: 6.00 Build 0)  -->
<svg version="1.1" id="Birds" xmlns="http://www.w3.org/2000/svg" xmlns:xlink="http://www.w3.org/1999/xlink" x="0px" y="0px"
	 viewBox="0 0 1920 1080" style="enable-background:new 0 0 1920 1080;" xml:space="preserve">
<style type="text/css">
	.st0{fill:#7D7272;stroke:#7D7272;stroke-miterlimit:10;}
</style>
<path id="Bird2" class="st0" d="M1355.56,179.24c5.83-6.07,14.96-8.42,23.22-6.82c8.26,1.6,15.57,6.85,20.53,13.64
	c3.1-4.32,7.74-7.36,12.7-9.27c6.63-2.56,14.12-3.22,20.91-1.09c6.79,2.13,12.75,7.21,15.25,13.87
	c-6.44-6.77-16.26-10.15-25.51-8.79c-9.24,1.37-17.67,7.44-21.88,15.78c-6.91-6.5-14.18-13.04-23.08-16.32
	c-8.9-3.28-19.92-2.59-26.63,4.12C1351.34,182.19,1353.89,180.97,1355.56,179.24z"/>
</svg>
