<?xml version="1.0" encoding="utf-8"?>
<!-- Generator: Adobe Adobe Illustrator 24.2.0, SVG Export Plug-In . SVG Version: 6.00 Build 0)  -->
<svg version="1.1" id="Clouds" xmlns="http://www.w3.org/2000/svg" xmlns:xlink="http://www.w3.org/1999/xlink" x="0px" y="0px"
	 viewBox="0 0 1920 1080" style="enable-background:new 0 0 1920 1080;" xml:space="preserve">
<style type="text/css">
	.st0{fill:#FFFFFF;stroke:#7D7272;stroke-miterlimit:10;}
</style>
<path id="Cloud1" class="st0" d="M656.85,297.6c-36.91-17.72-81.06-9.61-119.3,5.03c-38.24,14.64-74.5,35.5-114.69,43.32
	c-37.5,7.3-76.16,2.8-114.35,3.69c-38.19,0.89-78.76,8.44-106.43,34.79c54.59,18.67,115.05-2.86,172.03,6.21
	c44.81,7.13,89.27,33.05,132.85,20.41c17.15-4.97,32.06-15.56,48.43-22.71c84.37-36.85,189.73,22.51,271.69-19.44
	c2.07-9.89-7.64-18.84-17.55-20.83c-9.91-1.99-20.1,0.57-30.2,0.92C724.54,350.91,680.15,289.18,656.85,297.6z"/>
</svg>
