<?xml version="1.0" encoding="utf-8"?>
<!-- Generator: Adobe Adobe Illustrator 24.2.0, SVG Export Plug-In . SVG Version: 6.00 Build 0)  -->
<svg version="1.1" id="Clouds" xmlns="http://www.w3.org/2000/svg" xmlns:xlink="http://www.w3.org/1999/xlink" x="0px" y="0px"
	 viewBox="0 0 1920 1080" style="enable-background:new 0 0 1920 1080;" xml:space="preserve">
<style type="text/css">
	.st0{fill:#F2EBEF;stroke:#7D7272;stroke-miterlimit:10;}
</style>
<path id="Cloud3" class="st0" d="M1920,211.29c-51.42-2.17-85.58,1.24-135.89,12.08c-7.14,1.54-15.43,4.24-17.56,11.23
	c-1.36,4.46,0.32,9.51-1.41,13.84c-2.09,5.24-8.2,7.43-13.65,8.93c-47.71,13.12-97.42,19.5-143.41,37.76
	c-6.67,2.65-13.78,6.04-16.84,12.53s1.23,16.33,8.37,15.62c-2.22,8.48-16.37,11.04-15.8,19.79c0.5,7.64,11.18,8.88,18.76,7.79
	c39.96-5.73,79.92-11.45,119.88-17.18c12.97-1.86,26.17-3.72,39.13-1.79c14.59,2.17,28.35,9.08,43.09,9.63
	c21.51,0.8,41.62-12.02,63.15-12.11c7.98-0.03,20.43,0.83,31.17,1.73c11.31,0.95,21.01-7.98,21.01-19.33V211.29z"/>
</svg>
