<?xml version="1.0" encoding="utf-8"?>
<!-- Generator: Adobe Adobe Illustrator 24.2.0, SVG Export Plug-In . SVG Version: 6.00 Build 0)  -->
<svg version="1.1" id="Clouds" xmlns="http://www.w3.org/2000/svg" xmlns:xlink="http://www.w3.org/1999/xlink" x="0px" y="0px"
	 viewBox="0 0 1920 1080" style="enable-background:new 0 0 1920 1080;" xml:space="preserve">
<style type="text/css">
	.st0{fill:#EBE5E4;stroke:#7D7272;stroke-miterlimit:10;}
</style>
<path id="Cloud2" class="st0" d="M76.14,341.61c9.19-6.47,21.59-4.26,32.8-3.42c14.49,1.09,29.19-0.64,43.03-5.05
	c8.79-2.8,17.37-6.75,24.27-12.88c3.16-2.8,5.93-6.02,9-8.92c29.03-27.27,76.92-19.5,111.39-39.46
	c12.29-7.12,22.49-17.59,35.24-23.83c29.73-14.56,65.98-2.81,93.45,15.66c27.47,18.48,50.53,43.4,79.76,58.96
	c26.89,14.31,58.07,19.93,88.44,17.57c5.02-0.39,10.24-0.97,14.95,0.82c4.71,1.78,8.64,6.83,7.25,11.67
	c-1.54,5.39-8.13,7.24-13.68,8c-37.53,5.08-75.86,0.52-113.4,5.52c-25.16,3.35-49.64,10.96-74.86,13.87s-52.39,0.55-73.09-14.14
	c-8.32-5.9-15.35-13.62-24.28-18.53c-12.67-6.96-27.82-7.58-42.25-6.67c-33.66,2.12-66.38,11.52-99.67,16.91s-68.66,6.5-99.47-7.2
	c-2.98-1.33-6.23-3.18-6.96-6.36C71.46,342.85,74.86,341.57,76.14,341.61z"/>
</svg>
