<?xml version="1.0" encoding="utf-8"?>
<!-- Generator: Adobe Adobe Illustrator 24.2.0, SVG Export Plug-In . SVG Version: 6.00 Build 0)  -->
<svg version="1.1" xmlns="http://www.w3.org/2000/svg" xmlns:xlink="http://www.w3.org/1999/xlink" x="0px" y="0px"
	 viewBox="0 0 1920 1080" style="enable-background:new 0 0 1920 1080;" xml:space="preserve">
<style type="text/css">
	.st0{fill:#EFDBD8;stroke:#7D7272;stroke-miterlimit:10;}
	.st1{fill:#E69C8A;stroke:#7D7272;stroke-miterlimit:10;}
	.st2{fill:#CFD0D5;stroke:#7D7272;stroke-miterlimit:10;}
	.st3{fill:#6783AB;stroke:#7D7272;stroke-miterlimit:10;}
	.st4{fill:#96AECE;stroke:#7D7272;stroke-miterlimit:10;}
	.st5{fill:#8196B6;stroke:#7D7272;stroke-miterlimit:10;}
	.st6{fill:#6781A9;stroke:#7D7272;stroke-miterlimit:10;}
	.st7{fill:#365274;stroke:#7D7272;stroke-miterlimit:10;}
	.st8{fill:#E3DDCC;stroke:#7D7272;stroke-miterlimit:10;}
	.st9{fill:#EBE5E4;stroke:#7D7272;stroke-miterlimit:10;}
	.st10{fill:#F2EBEF;stroke:#7D7272;stroke-miterlimit:10;}
	.st11{fill:#FFFFFF;stroke:#7D7272;stroke-miterlimit:10;}
	.st12{fill:#7D7272;stroke:#7D7272;stroke-miterlimit:10;}
</style>
<g id="Pink_layer">
	<path id="Pinkbg" class="st0" d="M-24.82-14.73c-20.32,376.52-23.94,753.94-10.86,1130.78c1.5,43.09,18.03,100.58,61.05,97.65
		c499.36-34.02,999.27-59.99,1499.47-77.91c135.14-4.84,271.23-9.04,404.88,11.61c27.14,4.19,55.26,9.36,81.67,1.82
		c26.4-7.54,50.22-32.49,46.06-59.63c-44.47-289.73-42-586.61,7.27-875.56c14.31-83.93,32.62-168.36,27.15-253.32
		c-1.99-30.96-7.59-62.85-25.21-88.38c-17.61-25.53-49.8-43.06-79.9-35.55c-295.15,73.57-598.27,122.6-902.39,116.21
		c-201.13-4.22-401.81-32.62-602.78-23.7C318.14-63.48,156.89-31.64-3.62,0.12c-7.01,1.39-13.09,5.83-20.06,7.4
		s-16.15-1.63-16.71-8.75C-40.94-8.35-26.54-9.48-24.82-14.73z"/>
</g>
<g id="Sunlayer">
	<ellipse id="Sun_1_" class="st1" cx="1250.56" cy="876.54" rx="155" ry="145"/>
</g>
<g id="Leftmount">
	<path id="Leftmount2" class="st2" d="M-51.29,787.58c25.37-52.09,50.74-104.17,76.1-156.26c9.96-20.45,21.13-42.2,41.19-52.92
		c40.29-21.54,86.84,12.48,119.92,43.99c79.66,75.89,163.66,152.63,267.63,188.6c44.35,15.34,91.73,23,133.07,45.21
		c34.93,18.77,63.69,46.94,94.68,71.68c74.19,59.22,163.28,99.62,256.71,116.41c44.37,7.97,92.95,12.17,126.29,42.51
		c-18.29,29.45-61.25,25.24-94.73,34.19c-26.02,6.96-48.52,23.52-74.18,31.7c-24.19,7.71-50.08,7.64-75.47,7.5
		c-55.16-0.3-110.32-0.6-165.48-0.91c-26.08-0.14-52.58-0.35-77.54-7.91c-31.29-9.49-58.16-29.95-88.86-41.21
		c-110.32-40.48-234.37,45.79-347.78,15.01c-13.91-3.77-28.34-9.32-42.29-5.7c-6.66,1.73-13.31,5.52-19.98,3.84
		c-6.89-1.74-10.95-8.58-15.56-14c-19.55-22.98-55.03-23.69-79.69-41.08c-22.67-15.98-33.54-44.5-35.85-72.14
		c-2.31-27.64,2.66-55.29,5.24-82.9C-43.77,869.75-45.62,825.79-51.29,787.58z"/>
	<path id="Leftmount1" class="st3" d="M-78.53,797.13c114.97-32.36,229.2,59,348.63,60.56c135.67,1.77,249.15-110.98,384.13-124.7
		c63.81-6.48,127.63,9.79,188.88,28.82c177.58,55.15,347.93,134.67,529.82,173.27c210.32,44.63,431.29,33.45,636.86,96.46
		c13.68,4.19,27.84,9.06,37.75,19.37c9.92,10.31,13.95,27.72,5.15,39c-6.85,8.78-18.86,11.3-29.84,13.14
		c-157.38,26.38-317.32,36.79-476.85,33.17c-225-5.11-449.78-38.01-674.34-23.11c-201.62,13.38-400.33,65.19-602.39,63.32
		c-98.8-0.91-197.48-14.77-292.71-41.1c-28.09-7.77-58.75-18.93-71.93-44.93c-7.58-14.94-7.96-32.39-7.83-49.14
		C-102.63,965.13-94.97,889.05-78.53,797.13z"/>
</g>
<g id="Right_mount">
	<path id="Mount4" class="st4" d="M1904.83,629.98c-56.59-29.83-125.3-3.17-183.06,24.33c-200.11,95.29-397.23,200.88-610.61,260.82
		c-274.42,77.08-567.76,76.25-837.01,169.79c43.83,34.57,105.35,32.19,160.99,27.58c371.29-30.76,743.14-86.63,1114.7-59.36
		c119.03,8.74,237.44,25.99,356.72,30.07c11.55,0.4,24.46,0.16,32.73-7.91c7.28-7.11,8.66-18.13,9.63-28.26
		c12.45-129.94,24.91-260.87,12.03-390.77C1935.25,648.88,1909.58,641.47,1904.83,629.98z"/>
	<path id="Mount3" class="st5" d="M1897.97,683.29c-19.04-21.17-50.7-27.09-78.73-22.09c-28.03,5-53.42,19.24-78.2,33.26
		c-118.15,66.83-236.29,133.66-354.44,200.48c-49.75,28.14-101.65,56.95-158.67,60.9c-30,2.08-59.99-2.88-90.04-4.05
		c-70.06-2.73-139.11,15.11-206.82,33.3c-32.35,8.69-70.69,23.97-75.26,57.15c-1.17,8.53-0.11,18.22-5.78,24.7
		c-4.29,4.89-11.19,6.36-17.59,7.54c-41.55,7.7-83.11,15.41-124.66,23.11c63.63,25.05,134.41,21.36,202.7,17.84
		c79.47-4.1,158.98-7.47,238.49-10.84c60.74-2.58,121.47-5.15,182.21-7.73c49.22-2.09,98.45-4.17,147.7-5.13
		c161.64-3.12,323.52,6.01,483.78,27.3c13.93,1.85,28.51,3.73,41.68-1.15c20.95-7.74,32.66-30.79,35.26-52.97
		s-1.85-44.51-2.96-66.81c-3.47-69.99,25.29-144.55-4.99-207.74c-17.33-36.16-51.1-61.16-83.58-84.67
		C1921.33,686.35,1893.67,666.57,1897.97,683.29z"/>
	<path id="Mount2" class="st6" d="M1973.32,680.07c7.27-68.95-1.29-139.52-24.84-204.73c-38.41,11.02-67.64,42.67-88.13,76.98
		c-20.49,34.3-34.24,72.25-54.21,106.86c-67.26,116.52-196.47,182.14-323.44,226.61c-119.49,41.85-243.5,70.79-369.18,86.14
		c-180.57,22.06-370.46,17.73-533.52,98.36c-9.79,4.84-20.78,12.06-20.83,22.98c-0.05,10.71,10.55,18.06,20.27,22.57
		c47.02,21.8,100.56,23.44,152.39,23.85c297.19,2.36,593.83-23.16,890.82-34.24c79.46-2.97,159.54-4.86,237.97,8.2
		c51.36,8.56,109.45,22.04,151.35-8.89c20.32-15,32.92-38.39,40.79-62.39c12.39-37.79,14.49-78.21,13.09-117.95
		c-3.55-100.39-28.64-198.62-53.6-295.92c-7.52-29.32-15.04-58.64-22.56-87.96c-3.95-15.41-8.44-31.73-20.2-42.44
		s-33.3-12.15-41.85,1.27"/>
	<path id="Mount1" class="st7" d="M1950.97,477.67c-38.5,20.65-63.43,60.24-78.84,101.12c-15.4,40.88-22.96,84.3-36.81,125.73
		c-17.62,52.73-46.42,103.08-89.89,137.74c-28.4,22.65-61.92,37.81-92.62,57.22c-67.13,42.43-119.53,104.27-167.73,167.39
		c-13.53,17.72-27.52,36.23-47.37,46.38c-17.67,9.04-38.12,10.47-57.93,11.73c-42.17,2.68-84.34,5.37-126.51,8.05
		c-15.64,1-34.14,3.8-41.02,17.89c-6.12,12.55,1.18,28.39,12.74,36.22s26.12,9.51,40.06,10.35c97.85,5.93,196.09-18.08,293.62-8.12
		c49.39,5.05,97.51,18.72,146.68,25.64c115.82,16.29,248.22-13.61,314.1-110.26c51.49-75.55,51.78-173.57,50.19-264.98
		c-1.67-96.12-3.63-194.03-34.3-285.15c-4.7-13.96-11.04-28.86-24.07-35.74c-17.93-9.46-49.22-7.03-49.51-27.3
		C1947.09,495.66,1932.41,499.74,1950.97,477.67z"/>
</g>
<g id="Sand_layer">
	<path id="Sand" class="st8" d="M-107.87,993.06c76.95-39.75,167.77-39.57,254.26-34.95c127.36,6.79,254.3,21.23,379.93,43.22
		c141.3,24.73,282.37,59.12,425.8,56.83c128.28-2.05,254.37-33.44,382.4-41.73c133.45-8.64,267.11,7.92,399.82,24.44
		c94.05,11.71,188.65,23.54,279.29,51.25c27.62,8.45,60.98,29.51,52.48,57.12c-6.75,21.93-34.83,27.26-57.74,28.6
		c-108.73,6.34-217.63,9.31-326.51,12.27c-185.03,5.04-370.06,10.08-555.1,15.11c-356.76,9.71-713.87,19.43-1070.45,4.41
		c-22.46-0.95-45.96-2.29-65.27-13.8c-19.06-11.36-31.38-31.08-42.1-50.5C-74.91,1102.07-94.49,1056.46-107.87,993.06z"/>
</g>
<g id="Clouds">
	<path id="Cloud2" class="st9" d="M76.14,341.61c9.19-6.47,21.59-4.26,32.8-3.42c14.49,1.09,29.19-0.64,43.03-5.05
		c8.79-2.8,17.37-6.75,24.27-12.88c3.16-2.8,5.93-6.02,9-8.92c29.03-27.27,76.92-19.5,111.39-39.46
		c12.29-7.12,22.49-17.59,35.24-23.83c29.73-14.56,65.98-2.81,93.45,15.66c27.47,18.48,50.53,43.4,79.76,58.96
		c26.89,14.31,58.07,19.93,88.44,17.57c5.02-0.39,10.24-0.97,14.95,0.82c4.71,1.78,8.64,6.83,7.25,11.67
		c-1.54,5.39-8.13,7.24-13.68,8c-37.53,5.08-75.86,0.52-113.4,5.52c-25.16,3.35-49.64,10.96-74.86,13.87s-52.39,0.55-73.09-14.14
		c-8.32-5.9-15.35-13.62-24.28-18.53c-12.67-6.96-27.82-7.58-42.25-6.67c-33.66,2.12-66.38,11.52-99.67,16.91s-68.66,6.5-99.47-7.2
		c-2.98-1.33-6.23-3.18-6.96-6.36C71.46,342.85,74.86,341.57,76.14,341.61z"/>
	<path id="Cloud3" class="st10" d="M1937.52,210.29c-51.42-2.17-103.1,2.24-153.41,13.08c-7.14,1.54-15.43,4.24-17.56,11.23
		c-1.36,4.46,0.32,9.51-1.41,13.84c-2.09,5.24-8.2,7.43-13.65,8.93c-47.71,13.12-97.42,19.5-143.41,37.76
		c-6.67,2.65-13.78,6.04-16.84,12.53s1.23,16.33,8.37,15.62c-2.22,8.48-16.37,11.04-15.8,19.79c0.5,7.64,11.18,8.88,18.76,7.79
		c39.96-5.73,79.92-11.45,119.88-17.18c12.97-1.86,26.17-3.72,39.13-1.79c14.59,2.17,28.35,9.08,43.09,9.63
		c21.51,0.8,41.62-12.02,63.15-12.11c16.51-0.07,31.97,7.31,47.58,12.7s33.52,8.68,48.09,0.92c16.7-8.9,26.98-31.14,45.9-31.27
		c6.02-0.04,12.58,2.26,17.75-0.83c2.83-1.69,4.6-4.72,5.76-7.81c4.51-11.97,1.25-25.75-5.49-36.63
		c-6.73-10.87-16.57-19.4-26.26-27.76c-6.41-5.53-12.82-11.05-19.22-16.58c-4.39-3.78-8.88-7.63-14.26-9.78
		c-5.82-2.32-12.24-2.48-18.51-2.6C1939.2,209.59,1929.25,209.39,1937.52,210.29z"/>
	<path id="Cloud1" class="st11" d="M656.85,297.6c-36.91-17.72-81.06-9.61-119.3,5.03c-38.24,14.64-74.5,35.5-114.69,43.32
		c-37.5,7.3-76.16,2.8-114.35,3.69c-38.19,0.89-78.76,8.44-106.43,34.79c54.59,18.67,115.05-2.86,172.03,6.21
		c44.81,7.13,89.27,33.05,132.85,20.41c17.15-4.97,32.06-15.56,48.43-22.71c84.37-36.85,189.73,22.51,271.69-19.44
		c2.07-9.89-7.64-18.84-17.55-20.83c-9.91-1.99-20.1,0.57-30.2,0.92C724.54,350.91,680.15,289.18,656.85,297.6z"/>
</g>
<g id="Birds">
	<path id="Bird1" class="st12" d="M1226.95,202.09c6.91-6.63,17.28-9.45,26.6-7.23c9.32,2.22,17.3,9.4,20.49,18.44
		c2.61-8.78,9.71-16.09,18.41-18.95c8.7-2.86,18.76-1.2,25.64,5.68c-7.18-5.72-17.97-4.78-25.94-0.22
		c-7.97,4.56-13.77,12.05-19.36,19.34c-3.88-8.78-11.45-15.85-20.47-19.13C1243.3,196.73,1232.95,197.29,1226.95,202.09z"/>
	<path id="Bird2" class="st12" d="M1355.56,179.24c5.83-6.07,14.96-8.42,23.22-6.82c8.26,1.6,15.57,6.85,20.53,13.64
		c3.1-4.32,7.74-7.36,12.7-9.27c6.63-2.56,14.12-3.22,20.91-1.09c6.79,2.13,12.75,7.21,15.25,13.87
		c-6.44-6.77-16.26-10.15-25.51-8.79c-9.24,1.37-17.67,7.44-21.88,15.78c-6.91-6.5-14.18-13.04-23.08-16.32
		c-8.9-3.28-19.92-2.59-26.63,4.12C1351.34,182.19,1353.89,180.97,1355.56,179.24z"/>
	<path id="Bird3" class="st12" d="M1282.79,140.62c3.46-3.2,8.45-4.66,13.09-3.85c4.64,0.81,8.83,3.89,11,8.07
		c3.04-4.98,9.15-7.9,14.93-7.13c5.78,0.77,10.92,5.19,12.54,10.8c-3.8-3.86-9.83-4.91-15.11-3.69c-5.28,1.22-9.9,4.42-13.91,8.07
		c-3.87-3.77-8.11-7.36-13.18-9.24s-11.14-1.78-15.5,1.43C1278.68,142.23,1281.68,140.11,1282.79,140.62z"/>
</g>
</svg>
